<?xml version="1.0" standalone="no"?>
<!DOCTYPE svg PUBLIC "-//W3C//DTD SVG 20010904//EN"
 "http://www.w3.org/TR/2001/REC-SVG-20010904/DTD/svg10.dtd">
<svg version="1.0" xmlns="http://www.w3.org/2000/svg"
 width="289.000000pt" height="97.000000pt" viewBox="0 0 289.000000 97.000000"
 preserveAspectRatio="xMidYMid meet">

<g transform="translate(0.000000,97.000000) scale(0.100000,-0.100000)"
fill="#000000" stroke="none">
<path d="M425 705 c-51 -18 -120 -90 -136 -143 -17 -56 -8 -72 40 -72 52 0 71
8 71 30 0 10 14 32 31 49 25 25 39 31 74 31 24 0 55 -5 69 -11 22 -10 29 -8
62 24 34 32 36 37 23 53 -40 49 -153 67 -234 39z"/>
<path d="M1037 686 c-124 -46 -156 -195 -64 -294 48 -51 149 -68 221 -38 32
13 34 18 38 68 6 95 4 98 -58 98 -51 0 -54 -2 -54 -24 0 -18 6 -25 23 -28 14
-2 23 -11 25 -26 5 -34 -15 -52 -59 -52 -31 0 -47 8 -76 34 -34 31 -37 38 -37
89 -1 101 55 142 160 117 48 -12 57 -12 65 1 14 22 11 27 -22 44 -43 23 -117
28 -162 11z"/>
<path d="M1351 587 c-51 -18 -76 -58 -76 -120 0 -60 24 -100 69 -117 96 -34
176 21 176 120 0 56 -26 96 -72 115 -45 18 -52 18 -97 2z m80 -56 c19 -15 24
-29 24 -64 0 -55 -17 -77 -61 -77 -40 0 -54 21 -54 79 0 28 7 48 20 61 25 25
41 25 71 1z"/>
<path d="M1600 578 c-41 -28 -50 -66 -25 -104 13 -20 14 -28 4 -40 -6 -8 -9
-27 -6 -43 4 -19 1 -33 -8 -41 -23 -19 -18 -56 10 -74 33 -22 132 -22 165 1
33 22 40 33 40 65 0 33 -32 58 -75 58 -45 0 -75 11 -75 26 0 10 12 14 38 14
49 0 80 22 88 65 3 19 12 39 20 46 23 19 16 26 -33 33 -27 3 -61 8 -78 12 -22
4 -39 -1 -65 -18z m88 -37 c8 -4 12 -19 10 -32 -2 -20 -9 -24 -38 -24 -36 0
-49 18 -36 51 6 15 43 19 64 5z m27 -216 c0 -17 -7 -20 -50 -20 -41 0 -50 3
-53 19 -5 26 11 33 61 27 33 -5 42 -10 42 -26z"/>
<path d="M1867 583 c-25 -10 -37 -21 -35 -32 4 -17 25 -19 70 -8 18 5 32 2 43
-9 19 -19 16 -48 -5 -51 -93 -12 -130 -34 -130 -78 0 -53 64 -81 124 -54 20 9
29 9 41 -1 8 -7 22 -10 30 -6 12 4 15 24 15 96 0 102 -7 123 -50 145 -36 19
-55 18 -103 -2z m91 -155 c7 -38 -69 -67 -82 -32 -8 21 9 42 37 47 31 6 42 2
45 -15z"/>
<path d="M2171 583 c-26 -13 -36 -14 -39 -5 -2 7 -15 12 -28 12 l-25 0 3 -122
3 -123 28 -3 27 -3 0 90 c0 86 1 91 25 107 23 15 27 15 50 0 24 -16 25 -21 25
-107 l0 -90 28 3 27 3 0 102 c0 89 -3 105 -20 122 -29 29 -65 34 -104 14z"/>
<path d="M2398 583 c-61 -25 -46 -64 17 -43 44 14 78 -1 73 -33 -2 -18 -12
-23 -52 -29 -58 -8 -96 -40 -96 -79 0 -51 73 -76 130 -45 21 12 26 12 36 -2 6
-9 18 -13 28 -9 13 5 16 22 16 97 0 102 -7 123 -50 145 -36 19 -55 18 -102 -2z
m90 -161 c4 -26 -30 -46 -64 -38 -40 10 -27 47 21 59 30 7 40 3 43 -21z"/>
<path d="M526 492 c-3 -5 8 -22 24 -37 33 -32 38 -50 14 -59 -25 -10 -102 -7
-109 4 -12 20 -42 9 -73 -26 -18 -20 -29 -40 -26 -46 13 -20 110 -58 150 -58
117 0 233 101 234 203 l0 27 -104 0 c-58 0 -107 -4 -110 -8z"/>
</g>
</svg>
