<svg width="88" height="64" viewBox="0 0 88 64" fill="none" xmlns="http://www.w3.org/2000/svg">
<path d="M62.68 36.52C68.16 40.24 72 45.28 72 52V64H88V52C88 43.28 73.72 38.12 62.68 36.52Z" fill="#909090"/>
<path d="M56 32C64.84 32 72 24.84 72 16C72 7.16 64.84 0 56 0C54.12 0 52.36 0.399999 50.68 0.959999C54 5.08 56 10.32 56 16C56 21.68 54 26.92 50.68 31.04C52.36 31.6 54.12 32 56 32Z" fill="#909090"/>
<path d="M32 32C40.84 32 48 24.84 48 16C48 7.16 40.84 0 32 0C23.16 0 16 7.16 16 16C16 24.84 23.16 32 32 32ZM32 8C36.4 8 40 11.6 40 16C40 20.4 36.4 24 32 24C27.6 24 24 20.4 24 16C24 11.6 27.6 8 32 8Z" fill="#909090"/>
<path d="M32 36C21.32 36 0 41.36 0 52V64H64V52C64 41.36 42.68 36 32 36ZM56 56H8V52.04C8.8 49.16 21.2 44 32 44C42.8 44 55.2 49.16 56 52V56Z" fill="#909090"/>
</svg>
