<svg width="50" height="50" viewBox="0 0 50 50" fill="none" xmlns="http://www.w3.org/2000/svg">
<mask id="mask0_340_1480" style="mask-type:alpha" maskUnits="userSpaceOnUse" x="10" y="21" width="30" height="8">
<path fill-rule="evenodd" clip-rule="evenodd" d="M14 29C16.2091 29 18 27.2092 18 25C18 22.7908 16.2091 21 14 21C11.7909 21 10 22.7908 10 25C10 27.2092 11.7909 29 14 29ZM25 29C27.2091 29 29 27.2092 29 25C29 22.7908 27.2091 21 25 21C22.7909 21 21 22.7908 21 25C21 27.2092 22.7909 29 25 29ZM40 25C40 27.2092 38.2091 29 36 29C33.7909 29 32 27.2092 32 25C32 22.7908 33.7909 21 36 21C38.2091 21 40 22.7908 40 25Z" fill="black"/>
</mask>
<g mask="url(#mask0_340_1480)">
<rect width="50" height="50" fill="black"/>
</g>
</svg>
