<svg width="78" height="80" viewBox="0 0 78 80" fill="none" xmlns="http://www.w3.org/2000/svg">
<path d="M68.72 43.92C68.88 42.64 69 41.36 69 40C69 38.64 68.88 37.36 68.72 36.08L77.16 29.48C77.92 28.88 78.12 27.8 77.64 26.92L69.64 13.08C69.28 12.44 68.6 12.08 67.88 12.08C67.64 12.08 67.4 12.12 67.2 12.2L57.24 16.2C55.16 14.6 52.92 13.28 50.48 12.28L48.96 1.68C48.84 0.72 48 0 47 0H31C30 0 29.16 0.72 29.04 1.68L27.52 12.28C25.08 13.28 22.84 14.64 20.76 16.2L10.8 12.2C10.56 12.12 10.32 12.08 10.08 12.08C9.40003 12.08 8.72003 12.44 8.36003 13.08L0.360029 26.92C-0.159971 27.8 0.0800294 28.88 0.840029 29.48L9.28003 36.08C9.12003 37.36 9.00003 38.68 9.00003 40C9.00003 41.32 9.12003 42.64 9.28003 43.92L0.840029 50.52C0.0800294 51.12 -0.119971 52.2 0.360029 53.08L8.36003 66.92C8.72003 67.56 9.40003 67.92 10.12 67.92C10.36 67.92 10.6 67.88 10.8 67.8L20.76 63.8C22.84 65.4 25.08 66.72 27.52 67.72L29.04 78.32C29.16 79.28 30 80 31 80H47C48 80 48.84 79.28 48.96 78.32L50.48 67.72C52.92 66.72 55.16 65.36 57.24 63.8L67.2 67.8C67.44 67.88 67.68 67.92 67.92 67.92C68.6 67.92 69.28 67.56 69.64 66.92L77.64 53.08C78.12 52.2 77.92 51.12 77.16 50.52L68.72 43.92V43.92ZM60.8 37.08C60.96 38.32 61 39.16 61 40C61 40.84 60.92 41.72 60.8 42.92L60.24 47.44L63.8 50.24L68.12 53.6L65.32 58.44L60.24 56.4L56.08 54.72L52.48 57.44C50.76 58.72 49.12 59.68 47.48 60.36L43.24 62.08L42.6 66.6L41.8 72H36.2L35.44 66.6L34.8 62.08L30.56 60.36C28.84 59.64 27.24 58.72 25.64 57.52L22 54.72L17.76 56.44L12.68 58.48L9.88003 53.64L14.2 50.28L17.76 47.48L17.2 42.96C17.08 41.72 17 40.8 17 40C17 39.2 17.08 38.28 17.2 37.08L17.76 32.56L14.2 29.76L9.88003 26.4L12.68 21.56L17.76 23.6L21.92 25.28L25.52 22.56C27.24 21.28 28.88 20.32 30.52 19.64L34.76 17.92L35.4 13.4L36.2 8H41.76L42.52 13.4L43.16 17.92L47.4 19.64C49.12 20.36 50.72 21.28 52.32 22.48L55.96 25.28L60.2 23.56L65.28 21.52L68.08 26.36L63.8 29.76L60.24 32.56L60.8 37.08ZM39 24C30.16 24 23 31.16 23 40C23 48.84 30.16 56 39 56C47.84 56 55 48.84 55 40C55 31.16 47.84 24 39 24ZM39 48C34.6 48 31 44.4 31 40C31 35.6 34.6 32 39 32C43.4 32 47 35.6 47 40C47 44.4 43.4 48 39 48Z" fill="#909090"/>
</svg>
