<svg width="96" height="96" viewBox="0 0 96 96" fill="none" xmlns="http://www.w3.org/2000/svg">
<g clip-path="url(#clip0_9_20)">
<path d="M12 72H64V64H12V72ZM12 52H52V44H12V52ZM12 24V32H64V24H12ZM84 62.36L69.68 48L84 33.64L78.36 28L58.36 48L78.36 68L84 62.36Z" fill="#909090"/>
<g clip-path="url(#clip1_9_20)">
<path d="M12 72H64V64H12V72ZM12 52H52V44H12V52ZM12 24V32H64V24H12ZM84 62.36L69.68 48L84 33.64L78.36 28L58.36 48L78.36 68L84 62.36Z" fill="#909090"/>
</g>
</g>
<defs>
<clipPath id="clip0_9_20">
<rect width="96" height="96" fill="white"/>
</clipPath>
<clipPath id="clip1_9_20">
<rect width="96" height="96" fill="white"/>
</clipPath>
</defs>
</svg>
