<svg width="41" height="72" viewBox="0 0 41 72" fill="none" xmlns="http://www.w3.org/2000/svg">
<path d="M22.2 31.6C13.12 29.24 10.2 26.8 10.2 23C10.2 18.64 14.24 15.6 21 15.6C28.12 15.6 30.76 19 31 24H39.84C39.56 17.12 35.36 10.8 27 8.76V0H15V8.64C7.24 10.32 0.999998 15.36 0.999998 23.08C0.999998 32.32 8.64 36.92 19.8 39.6C29.8 42 31.8 45.52 31.8 49.24C31.8 52 29.84 56.4 21 56.4C12.76 56.4 9.52 52.72 9.08 48H0.279999C0.759999 56.76 7.32 61.68 15 63.32V72H27V63.4C34.8 61.92 41 57.4 41 49.2C41 37.84 31.28 33.96 22.2 31.6Z" fill="#909090"/>
</svg>
